<?xml version="1.0" encoding="utf-8"?>
<!-- Generator: Adobe Illustrator 19.0.0, SVG Export Plug-In . SVG Version: 6.00 Build 0)  -->
<svg version="1.1" id="Layer_1" xmlns="http://www.w3.org/2000/svg" xmlns:xlink="http://www.w3.org/1999/xlink" x="0px" y="0px"
	 viewBox="-391 177 80 80" style="enable-background:new -391 177 80 80;" xml:space="preserve">
<rect x="-391" y="177" style="fill:none;" width="80" height="80"/>
<path style="fill:#F27523;" d="M-351,187L-351,187c1.5,0,2.8,1.8,2.8,4v4c0,2.2-1.3,4-2.8,4l0,0c-1.5,0-2.8-1.8-2.8-4v-4
	C-353.8,188.8-352.5,187-351,187z">
<animate  fill="remove" additive="replace" to="0" accumulate="none" attributeName="opacity" repeatCount="indefinite" from="1" begin="0s" dur="0.5s" restart="always" calcMode="linear">
		</animate>
</path>
<path style="fill:#F27523;" d="M-336,191L-336,191c1.3,0.8,1.5,3,0.4,4.9l-2,3.5c-1.1,1.9-3.1,2.8-4.4,2.1l0,0
	c-1.3-0.8-1.5-3-0.4-4.9l2-3.5C-339.3,191.2-337.3,190.2-336,191z">
<animate  fill="remove" additive="replace" to="0" accumulate="none" attributeName="opacity" repeatCount="indefinite" from="1" begin="0.041666666666666664s" dur="0.5s" restart="always" calcMode="linear">
		</animate>
</path>
<path style="fill:#F27523;" d="M-325,202L-325,202c0.8,1.3-0.2,3.3-2.1,4.4l-3.5,2c-1.9,1.1-4.1,0.9-4.9-0.4l0,0
	c-0.8-1.3,0.2-3.3,2.1-4.4l3.5-2C-328,200.5-325.8,200.7-325,202z">
<animate  fill="remove" additive="replace" to="0" accumulate="none" attributeName="opacity" repeatCount="indefinite" from="1" begin="0.08333333333333333s" dur="0.5s" restart="always" calcMode="linear">
		</animate>
</path>
<path style="fill:#F27523;" d="M-321,217L-321,217c0,1.5-1.8,2.8-4,2.8h-4c-2.2,0-4-1.3-4-2.8l0,0c0-1.5,1.8-2.8,4-2.8h4
	C-322.8,214.2-321,215.5-321,217z">
<animate  fill="remove" additive="replace" to="0" accumulate="none" attributeName="opacity" repeatCount="indefinite" from="1" begin="0.125s" dur="0.5s" restart="always" calcMode="linear">
		</animate>
</path>
<path style="fill:#F27523;" d="M-325,232L-325,232c-0.8,1.3-3,1.5-4.9,0.4l-3.5-2c-1.9-1.1-2.8-3.1-2.1-4.4l0,0
	c0.8-1.3,3-1.5,4.9-0.4l3.5,2C-325.2,228.7-324.2,230.7-325,232z">
<animate  fill="remove" additive="replace" to="0" accumulate="none" attributeName="opacity" repeatCount="indefinite" from="1" begin="0.16666666666666666s" dur="0.5s" restart="always" calcMode="linear">
		</animate>
</path>
<path style="fill:#F27523;" d="M-336,243L-336,243c-1.3,0.8-3.3-0.2-4.4-2.1l-2-3.5c-1.1-1.9-0.9-4.1,0.4-4.9l0,0
	c1.3-0.8,3.3,0.2,4.4,2.1l2,3.5C-334.5,240-334.7,242.2-336,243z">
<animate  fill="remove" additive="replace" to="0" accumulate="none" attributeName="opacity" repeatCount="indefinite" from="1" begin="0.20833333333333334s" dur="0.5s" restart="always" calcMode="linear">
		</animate>
</path>
<path style="fill:#F27523;" d="M-351,247L-351,247c-1.5,0-2.8-1.8-2.8-4v-4c0-2.2,1.3-4,2.8-4l0,0c1.5,0,2.8,1.8,2.8,4v4
	C-348.2,245.2-349.5,247-351,247z">
<animate  fill="remove" additive="replace" to="0" accumulate="none" attributeName="opacity" repeatCount="indefinite" from="1" begin="0.25s" dur="0.5s" restart="always" calcMode="linear">
		</animate>
</path>
<path style="fill:#F27523;" d="M-366,243L-366,243c-1.3-0.8-1.5-3-0.4-4.9l2-3.5c1.1-1.9,3.1-2.8,4.4-2.1l0,0c1.3,0.8,1.5,3,0.4,4.9
	l-2,3.5C-362.7,242.8-364.7,243.8-366,243z">
<animate  fill="remove" additive="replace" to="0" accumulate="none" attributeName="opacity" repeatCount="indefinite" from="1" begin="0.2916666666666667s" dur="0.5s" restart="always" calcMode="linear">
		</animate>
</path>
<path style="fill:#F27523;" d="M-377,232L-377,232c-0.8-1.3,0.2-3.3,2.1-4.4l3.5-2c1.9-1.1,4.1-0.9,4.9,0.4l0,0
	c0.8,1.3-0.2,3.3-2.1,4.4l-3.5,2C-374,233.5-376.2,233.3-377,232z">
<animate  fill="remove" additive="replace" to="0" accumulate="none" attributeName="opacity" repeatCount="indefinite" from="1" begin="0.3333333333333333s" dur="0.5s" restart="always" calcMode="linear">
		</animate>
</path>
<path style="fill:#F27523;" d="M-381,217L-381,217c0-1.5,1.8-2.8,4-2.8h4c2.2,0,4,1.3,4,2.8l0,0c0,1.5-1.8,2.8-4,2.8h-4
	C-379.2,219.8-381,218.5-381,217z">
<animate  fill="remove" additive="replace" to="0" accumulate="none" attributeName="opacity" repeatCount="indefinite" from="1" begin="0.375s" dur="0.5s" restart="always" calcMode="linear">
		</animate>
</path>
<path style="fill:#F27523;" d="M-377,202L-377,202c0.8-1.3,3-1.5,4.9-0.4l3.5,2c1.9,1.1,2.8,3.1,2.1,4.4l0,0c-0.8,1.3-3,1.5-4.9,0.4
	l-3.5-2C-376.8,205.3-377.8,203.3-377,202z">
<animate  fill="remove" additive="replace" to="0" accumulate="none" attributeName="opacity" repeatCount="indefinite" from="1" begin="0.4166666666666667s" dur="0.5s" restart="always" calcMode="linear">
		</animate>
</path>
<path style="fill:#F27523;" d="M-366,191L-366,191c1.3-0.8,3.3,0.2,4.4,2.1l2,3.5c1.1,1.9,0.9,4.1-0.4,4.9l0,0
	c-1.3,0.8-3.3-0.2-4.4-2.1l-2-3.5C-367.5,194-367.3,191.8-366,191z">
<animate  fill="remove" additive="replace" to="0" accumulate="none" attributeName="opacity" repeatCount="indefinite" from="1" begin="0.4583333333333333s" dur="0.5s" restart="always" calcMode="linear">
		</animate>
</path>
<circle style="fill:#F27523;" cx="-351.2" cy="216.6" r="14.5"/>
</svg>
