<?xml version="1.0" encoding="UTF-8" standalone="no"?>
<svg width="50px" height="51px" viewBox="0 0 50 51" version="1.1" xmlns="http://www.w3.org/2000/svg" xmlns:xlink="http://www.w3.org/1999/xlink" xmlns:sketch="http://www.bohemiancoding.com/sketch/ns">
    <!-- Generator: Sketch 3.3.2 (12043) - http://www.bohemiancoding.com/sketch -->
    <title>1-auto</title>
    <desc>Created with Sketch.</desc>
    <defs></defs>
    <g id="Page-1" stroke="none" stroke-width="1" fill="none" fill-rule="evenodd" sketch:type="MSPage">
        <g id="1-auto" sketch:type="MSLayerGroup" fill="#000000">
            <path d="M2.515,40.662 C1.949,40.662 1.556,40.374 1.352,40.025 C0.461,39.06 0.021,37.838 0.041,36.391 C0.122,30.741 7.556,22.786 9.961,20.357 L7.978,18.373 C7.125,17.52 7.125,16.131 7.978,15.278 L14.783,8.473 C15.609,7.647 17.051,7.647 17.877,8.474 L19.861,10.457 C22.301,8.04 30.321,0.548 35.977,0.548 C37.389,0.548 38.583,0.993 39.53,1.872 C39.762,2.014 39.982,2.25 40.087,2.597 C40.304,3.308 40.142,4.327 37.518,6.951 L27.078,17.391 C26.918,17.551 26.878,17.79 26.977,18.001 C27.592,19.309 28.128,21.998 24.815,25.311 C23.082,27.044 21.311,27.923 19.552,27.923 C19.551,27.923 19.552,27.923 19.551,27.923 C18.828,27.923 18.131,27.772 17.48,27.475 C17.279,27.384 17.041,27.428 16.886,27.583 L6.43,38.039 C4.119,40.351 3.154,40.662 2.515,40.662 L2.515,40.662 Z M16.33,9.833 C16.294,9.833 16.242,9.842 16.197,9.888 L9.392,16.693 C9.318,16.766 9.318,16.885 9.392,16.959 L12.81,20.377 L12.071,21.084 C9.304,23.728 2.108,31.638 2.041,36.42 C2.028,37.287 2.252,37.988 2.721,38.554 C3.055,38.37 3.755,37.886 5.016,36.625 L15.472,26.169 C16.208,25.432 17.361,25.223 18.31,25.656 C19.78,26.327 21.573,25.725 23.401,23.897 C25.727,21.571 25.646,19.869 25.167,18.851 C24.712,17.883 24.913,16.728 25.664,15.977 L36.104,5.537 C37.174,4.467 37.882,3.567 38.102,3.277 C37.54,2.787 36.843,2.548 35.977,2.548 C31.207,2.548 23.252,9.78 20.588,12.567 L19.881,13.306 L16.463,9.888 C16.417,9.842 16.365,9.833 16.33,9.833 L16.33,9.833 Z" id="Fill-1" sketch:type="MSShapeGroup"></path>
            <path d="M7.845,16.826 C5.505,14.486 5.505,10.68 7.845,8.34 C10.183,6.001 13.99,6.001 16.33,8.34 L14.916,9.755 C13.356,8.195 10.818,8.196 9.259,9.755 C7.699,11.314 7.699,13.852 9.259,15.412 L7.845,16.826" id="Fill-2" sketch:type="MSShapeGroup"></path>
            <path d="M44.614,50.11 C43.278,50.11 42.023,49.59 41.079,48.645 L18.673,26.24 L20.388,25.812 C21.358,25.571 22.372,24.926 23.401,23.897 C24.435,22.863 25.083,21.851 25.325,20.889 L25.756,19.181 L48.149,41.574 C50.099,43.524 50.099,46.696 48.149,48.646 C47.205,49.59 45.95,50.11 44.614,50.11 L44.614,50.11 Z M22.411,27.149 L42.493,47.231 C43.627,48.365 45.602,48.364 46.735,47.231 C47.905,46.062 47.905,44.158 46.735,42.989 L26.658,22.911 C26.223,23.717 25.606,24.519 24.815,25.311 C24.025,26.101 23.221,26.716 22.411,27.149 L22.411,27.149 Z" id="Fill-3" sketch:type="MSShapeGroup"></path>
        </g>
    </g>
</svg>