<?xml version="1.0" encoding="utf-8"?>
<svg width="50px" height="50px" viewBox="0 0 50 50" xmlns="http://www.w3.org/2000/svg">
  <defs>
    <pattern id="pattern-0" x="0" y="0" width="20" height="20" patternUnits="userSpaceOnUse" viewBox="0 0 100 100">
      <path d="M 0 0 L 50 0 L 50 100 L 0 100 Z" style="fill: black;"/>
    </pattern>
  </defs>
  <style type="text/css">
	.st0{fill:#202020;}
</style>
  <path d="M 43.569 26.948 L 50 20.517 L 33.333 3.85 L 26.902 10.281 L 28.17 11.549 L 25.634 14.086 L 23.098 11.549 L 24.366 10.281 L 17.934 3.85 L 0 21.784 L 6.431 28.215 L 7.699 26.948 L 26.902 46.15 L 42.301 30.752 L 39.764 28.215 L 42.301 25.68 L 43.569 26.948 Z M 2.537 21.784 L 17.934 6.387 L 21.739 10.281 L 6.341 25.68 L 2.537 21.784 Z M 37.772 32.653 L 31.974 26.858 C 31.612 26.493 31.069 26.493 30.707 26.858 C 30.344 27.22 30.344 27.763 30.707 28.125 L 36.503 33.922 L 33.968 36.458 L 28.17 30.661 C 27.808 30.299 27.264 30.299 26.902 30.661 C 26.54 31.024 26.54 31.568 26.902 31.93 L 32.699 37.726 L 30.163 40.262 L 24.366 34.465 C 24.003 34.103 23.46 34.103 23.098 34.465 C 22.736 34.827 22.736 35.371 23.098 35.734 L 28.894 41.53 L 26.992 43.432 L 8.968 25.589 L 21.739 12.818 L 24.276 15.353 L 17.21 22.419 L 22.373 27.582 L 29.439 20.517 L 39.674 30.752 L 37.772 32.653 Z M 38.406 26.948 L 30.072 18.614 C 29.71 18.252 29.167 18.252 28.804 18.614 L 22.373 25.045 L 19.837 22.509 L 26.268 16.077 L 29.439 12.907 L 40.942 24.411 L 38.406 26.948 Z M 33.333 6.387 L 47.463 20.517 L 43.659 24.321 L 29.439 10.281 L 33.333 6.387 Z" style="fill: rgb(0, 204, 0); stroke-width: 0;"/>
</svg>