<?xml version="1.0" encoding="utf-8"?>
<svg version="1.1" id="Layer_1" x="0px" y="0px" width="50px" height="50px" viewBox="0 0 50 50" style="enable-background:new 0 0 52 49;" xmlns="http://www.w3.org/2000/svg">
  <style type="text/css">

	.st0{fill-rule:evenodd;clip-rule:evenodd;}

</style>
  <g transform="matrix(0.961538, 0, 0, 0.961538, 0.000012, 1.442317)">
    <g>
      <path d="M52,19.4l-11.1,5.1c-0.6-3.7-3.8-6.5-7.7-6.5H33c2.4-1.8,4-4.7,4-8c0-5.5-4.5-10-10-10c-4.7,0-8.7,3.3-9.7,7.7&#10;&#9;&#9;&#9;C15.9,6.1,13.8,5,11.5,5C7.4,5,4,8.4,4,12.5c0,2.2,1,4.2,2.5,5.6C2.8,18.7,0,21.9,0,25.8v15.4C0,45.5,3.5,49,7.8,49h25.4&#10;&#9;&#9;&#9;c4.2,0,7.6-3.3,7.8-7.5l11,5V19.4z M27,2c4.4,0,8,3.6,8,8c0,4.4-3.6,8-8,8s-8-3.6-8-8C19,5.6,22.6,2,27,2z M21,18h-4.4&#10;&#9;&#9;&#9;c0.8-0.8,1.5-1.7,1.9-2.8C19.1,16.3,20,17.2,21,18z M6,12.5C6,9.5,8.5,7,11.5,7c3,0,5.5,2.5,5.5,5.5c0,3-2.5,5.5-5.5,5.5&#10;&#9;&#9;&#9;C8.5,18,6,15.5,6,12.5z M39,41.2c0,3.2-2.6,5.8-5.8,5.8H7.8C4.6,47,2,44.4,2,41.2V25.8C2,22.6,4.6,20,7.8,20h25.4&#10;&#9;&#9;&#9;c3.2,0,5.8,2.6,5.8,5.8V41.2z M50,43.4l-9-4.1V26.6l9-4.1V43.4z" style="fill: rgb(255, 102, 0);"/>
    </g>
  </g>
</svg>