<?xml version="1.0" encoding="utf-8"?>
<svg width="50px" height="50px" viewBox="0 0 50 50" version="1.1" xmlns="http://www.w3.org/2000/svg">
  <title>1-auto</title>
  <desc>Created with Sketch.</desc>
  <path d="M 2.689 40.333 C 2.123 40.333 1.73 40.045 1.526 39.696 C 0.635 38.731 0.195 37.509 0.215 36.062 C 0.296 30.412 7.73 22.457 10.135 20.028 L 8.152 18.044 C 7.299 17.191 7.299 15.802 8.152 14.949 L 14.957 8.144 C 15.783 7.318 17.225 7.318 18.051 8.145 L 20.035 10.128 C 22.475 7.711 30.495 0.219 36.151 0.219 C 37.563 0.219 38.757 0.664 39.704 1.543 C 39.936 1.685 40.156 1.921 40.261 2.268 C 40.478 2.979 40.316 3.998 37.692 6.622 L 27.252 17.062 C 27.092 17.222 27.052 17.461 27.151 17.672 C 27.766 18.98 28.302 21.669 24.989 24.982 C 23.256 26.715 21.485 27.594 19.726 27.594 C 19.725 27.594 19.726 27.594 19.725 27.594 C 19.002 27.594 18.305 27.443 17.654 27.146 C 17.453 27.055 17.215 27.099 17.06 27.254 L 6.604 37.71 C 4.293 40.022 3.328 40.333 2.689 40.333 L 2.689 40.333 Z M 16.504 9.504 C 16.468 9.504 16.416 9.513 16.371 9.559 L 9.566 16.364 C 9.492 16.437 9.492 16.556 9.566 16.63 L 12.984 20.048 L 12.245 20.755 C 9.478 23.399 2.282 31.309 2.215 36.091 C 2.202 36.958 2.426 37.659 2.895 38.225 C 3.229 38.041 3.929 37.557 5.19 36.296 L 15.646 25.84 C 16.382 25.103 17.535 24.894 18.484 25.327 C 19.954 25.998 21.747 25.396 23.575 23.568 C 25.901 21.242 25.82 19.54 25.341 18.522 C 24.886 17.554 25.087 16.399 25.838 15.648 L 36.278 5.208 C 37.348 4.138 38.056 3.238 38.276 2.948 C 37.714 2.458 37.017 2.219 36.151 2.219 C 31.381 2.219 23.426 9.451 20.762 12.238 L 20.055 12.977 L 16.637 9.559 C 16.591 9.513 16.539 9.504 16.504 9.504 L 16.504 9.504 Z" id="Fill-1" style="fill: rgb(255, 102, 0);"/>
  <path d="M 8.019 16.497 C 5.679 14.157 5.679 10.351 8.019 8.011 C 10.357 5.672 14.164 5.672 16.504 8.011 L 15.09 9.426 C 13.53 7.866 10.992 7.867 9.433 9.426 C 7.873 10.985 7.873 13.523 9.433 15.083 L 8.019 16.497" id="Fill-2" style="fill: rgb(255, 102, 0);"/>
  <path d="M 44.788 49.781 C 43.452 49.781 42.197 49.261 41.253 48.316 L 18.847 25.911 L 20.562 25.483 C 21.532 25.242 22.546 24.597 23.575 23.568 C 24.609 22.534 25.257 21.522 25.499 20.56 L 25.93 18.852 L 48.323 41.245 C 50.273 43.195 50.273 46.367 48.323 48.317 C 47.379 49.261 46.124 49.781 44.788 49.781 L 44.788 49.781 Z M 22.585 26.82 L 42.667 46.902 C 43.801 48.036 45.776 48.035 46.909 46.902 C 48.079 45.733 48.079 43.829 46.909 42.66 L 26.832 22.582 C 26.397 23.388 25.78 24.19 24.989 24.982 C 24.199 25.772 23.395 26.387 22.585 26.82 L 22.585 26.82 Z" id="Fill-3" style="fill: rgb(255, 102, 0);"/>
  <polyline style="fill: rgb(216, 216, 216); stroke: rgb(0, 0, 0);" points="45.817 15.142"/>
</svg>