<svg width="50" height="51" viewBox="0 0 50 51" xmlns="http://www.w3.org/2000/svg"><title>1-auto</title><g fill-rule="evenodd"><path d="M2.515 40.662c-.566 0-.959-.288-1.163-.637C.461 39.06.021 37.838.041 36.391c.081-5.65 7.515-13.605 9.92-16.034l-1.983-1.984a2.192 2.192 0 0 1 0-3.095l6.805-6.805c.826-.826 2.268-.826 3.094.001l1.984 1.983C22.301 8.04 30.321.548 35.977.548c1.412 0 2.606.445 3.553 1.324.232.142.452.378.557.725.217.711.055 1.73-2.569 4.354l-10.44 10.44c-.16.16-.2.399-.101.61.615 1.308 1.151 3.997-2.162 7.31-1.733 1.733-3.504 2.612-5.263 2.612h-.001c-.723 0-1.42-.151-2.071-.448a.532.532 0 0 0-.594.108L6.43 38.039c-2.311 2.312-3.276 2.623-3.915 2.623zM16.33 9.833a.181.181 0 0 0-.133.055l-6.805 6.805a.187.187 0 0 0 0 .266l3.418 3.418-.739.707C9.304 23.728 2.108 31.638 2.041 36.42c-.013.867.211 1.568.68 2.134.334-.184 1.034-.668 2.295-1.929l10.456-10.456a2.554 2.554 0 0 1 2.838-.513c1.47.671 3.263.069 5.091-1.759 2.326-2.326 2.245-4.028 1.766-5.046a2.544 2.544 0 0 1 .497-2.874l10.44-10.44a23.21 23.21 0 0 0 1.998-2.26c-.562-.49-1.259-.729-2.125-.729-4.77 0-12.725 7.232-15.389 10.019l-.707.739-3.418-3.418a.184.184 0 0 0-.133-.055z"/><path d="M7.845 16.826a6.007 6.007 0 0 1 0-8.486 6.007 6.007 0 0 1 8.485 0l-1.414 1.415a4.005 4.005 0 0 0-5.657 0 4.004 4.004 0 0 0 0 5.657l-1.414 1.414M44.614 50.11a4.963 4.963 0 0 1-3.535-1.465L18.673 26.24l1.715-.428c.97-.241 1.984-.886 3.013-1.915 1.034-1.034 1.682-2.046 1.924-3.008l.431-1.708 22.393 22.393a5.006 5.006 0 0 1 0 7.072 4.966 4.966 0 0 1-3.535 1.464zM22.411 27.149l20.082 20.082c1.134 1.134 3.109 1.133 4.242 0a3.002 3.002 0 0 0 0-4.242L26.658 22.911c-.435.806-1.052 1.608-1.843 2.4-.79.79-1.594 1.405-2.404 1.838z"/></g></svg>