<svg xmlns="http://www.w3.org/2000/svg" width="55.2" height="46.7" viewBox="0 0 55.2 46.7"><style>.st0{fill:#202020}</style><path d="M48.1 25.5l7.1-7.1L36.8 0l-7.1 7.1 1.4 1.4-2.8 2.8-2.8-2.8 1.4-1.4L19.8 0 0 19.8l7.1 7.1 1.4-1.4 21.2 21.2 17-17-2.8-2.8 2.8-2.8 1.4 1.4zM2.8 19.8l17-17L24 7.1l-17 17-4.2-4.3zm38.9 12l-6.4-6.4c-.4-.4-1-.4-1.4 0-.4.4-.4 1 0 1.4l6.4 6.4-2.8 2.8-6.4-6.4c-.4-.4-1-.4-1.4 0s-.4 1 0 1.4l6.4 6.4-2.8 2.8-6.4-6.4c-.4-.4-1-.4-1.4 0s-.4 1 0 1.4l6.4 6.4-2.1 2.1L9.9 24 24 9.9l2.8 2.8-7.8 7.8 5.7 5.7 7.8-7.8 11.3 11.3-2.1 2.1zm.7-6.3l-9.2-9.2c-.4-.4-1-.4-1.4 0l-7.1 7.1-2.8-2.8 7.1-7.1 3.5-3.5 12.7 12.7-2.8 2.8zM36.8 2.8l15.6 15.6-4.2 4.2L32.5 7.1l4.3-4.3z"/></svg>