<svg width="50" height="50" viewBox="0 0 50 50" xmlns="http://www.w3.org/2000/svg"><defs><pattern id="pattern-0" width="20" height="20" patternUnits="userSpaceOnUse" viewBox="0 0 100 100"><path d="M0 0h50v100H0z"/></pattern></defs><style>.st0{fill:#202020}</style><path d="M43.569 26.948L50 20.517 33.333 3.85l-6.431 6.431 1.268 1.268-2.536 2.537-2.536-2.537 1.268-1.268-6.432-6.431L0 21.784l6.431 6.431 1.268-1.267L26.902 46.15l15.399-15.398-2.537-2.537 2.537-2.535 1.268 1.268zM2.537 21.784L17.934 6.387l3.805 3.894L6.341 25.68l-3.804-3.896zm35.235 10.869l-5.798-5.795a.87.87 0 0 0-1.267 0 .873.873 0 0 0 0 1.267l5.796 5.797-2.535 2.536-5.798-5.797a.876.876 0 0 0-1.268 0 .877.877 0 0 0 0 1.269l5.797 5.796-2.536 2.536-5.797-5.797a.876.876 0 0 0-1.268 0 .877.877 0 0 0 0 1.269l5.796 5.796-1.902 1.902L8.968 25.589l12.771-12.771 2.537 2.535-7.066 7.066 5.163 5.163 7.066-7.065 10.235 10.235-1.902 1.901zm.634-5.705l-8.334-8.334a.876.876 0 0 0-1.268 0l-6.431 6.431-2.536-2.536 6.431-6.432 3.171-3.17 11.503 11.504-2.536 2.537zM33.333 6.387l14.13 14.13-3.804 3.804-14.22-14.04 3.894-3.894z" fill="#0c0" stroke-width="0"/></svg>