<svg id="Layer_1" xmlns="http://www.w3.org/2000/svg" width="52" height="51" viewBox="0 0 52 51"><style>.st0{fill-rule:evenodd;clip-rule:evenodd}</style><path d="M13.1 9H39c.6 0 1-.4 1-1s-.4-1-1-1H13.1c-.6 0-1 .4-1 1s.4 1 1 1zm-2 7H41c.6 0 1-.4 1-1s-.4-1-1-1H11.1c-.6 0-1 .4-1 1s.4 1 1 1zm-2 7H43c.6 0 1-.4 1-1s-.4-1-1-1H9.1c-.6 0-1 .4-1 1s.4 1 1 1zM45 28H7.1c-.6 0-1 .4-1 1s.4 1 1 1H45c.6 0 1-.4 1-1s-.5-1-1-1zm6.8 9.4L44.3.8c-.1-.5-.5-.8-1-.8H8.6c-.5 0-.9.3-1 .8L0 37.8c0 .2 0 .4.1.6V50c0 .6.4 1 1 1H51c.6 0 1-.4 1-1V38c0-.2-.1-.4-.2-.6zM9.4 2h33.1l7.2 35H2.2L9.4 2zM50 49H2.1v-2H50v2zm0-4H2.1v-2H50v2zm0-4H2.1v-2H50v2z"/></svg>