<svg id="Layer_1" width="50" height="50" viewBox="0 0 50 50" xmlns="http://www.w3.org/2000/svg"><style>.st0{fill-rule:evenodd;clip-rule:evenodd}</style><path d="M52 19.4l-11.1 5.1c-.6-3.7-3.8-6.5-7.7-6.5H33c2.4-1.8 4-4.7 4-8 0-5.5-4.5-10-10-10-4.7 0-8.7 3.3-9.7 7.7C15.9 6.1 13.8 5 11.5 5 7.4 5 4 8.4 4 12.5c0 2.2 1 4.2 2.5 5.6-3.7.6-6.5 3.8-6.5 7.7v15.4C0 45.5 3.5 49 7.8 49h25.4c4.2 0 7.6-3.3 7.8-7.5l11 5V19.4zM27 2c4.4 0 8 3.6 8 8s-3.6 8-8 8-8-3.6-8-8 3.6-8 8-8zm-6 16h-4.4c.8-.8 1.5-1.7 1.9-2.8.6 1.1 1.5 2 2.5 2.8zM6 12.5C6 9.5 8.5 7 11.5 7S17 9.5 17 12.5 14.5 18 11.5 18 6 15.5 6 12.5zm33 28.7c0 3.2-2.6 5.8-5.8 5.8H7.8C4.6 47 2 44.4 2 41.2V25.8C2 22.6 4.6 20 7.8 20h25.4c3.2 0 5.8 2.6 5.8 5.8v15.4zm11 2.2l-9-4.1V26.6l9-4.1v20.9z" fill="#f60" transform="translate(0 1.442) scale(.96154)"/></svg>